<mxfile host="app.diagrams.net" modified="2020-09-26T17:13:38.570Z" agent="5.0 (Windows NT 6.1; Win64; x64) AppleWebKit/537.36 (KHTML, like Gecko) Chrome/85.0.4183.121 Safari/537.36" etag="I8PxaCl3vREiYAcSwfAw" version="13.7.5" type="github">
  <diagram id="C5RBs43oDa-KdzZeNtuy" name="Page-1">
    <mxGraphModel dx="1422" dy="762" grid="1" gridSize="10" guides="1" tooltips="1" connect="1" arrows="1" fold="1" page="1" pageScale="1" pageWidth="827" pageHeight="1169" math="0" shadow="0">
      <root>
        <mxCell id="WIyWlLk6GJQsqaUBKTNV-0" />
        <mxCell id="WIyWlLk6GJQsqaUBKTNV-1" parent="WIyWlLk6GJQsqaUBKTNV-0" />
        <mxCell id="WIyWlLk6GJQsqaUBKTNV-3" value="Главная страница" style="rounded=1;whiteSpace=wrap;html=1;fontSize=12;glass=0;strokeWidth=1;shadow=0;" parent="WIyWlLk6GJQsqaUBKTNV-1" vertex="1">
          <mxGeometry y="30" width="120" height="40" as="geometry" />
        </mxCell>
        <mxCell id="j_ZyQGbrb5WWIaR_qc2B-1" value="Каталог карточек" style="rounded=1;whiteSpace=wrap;html=1;fontSize=12;glass=0;strokeWidth=1;shadow=0;" vertex="1" parent="WIyWlLk6GJQsqaUBKTNV-1">
          <mxGeometry y="70" width="120" height="40" as="geometry" />
        </mxCell>
        <mxCell id="j_ZyQGbrb5WWIaR_qc2B-2" value="Карточка" style="rounded=1;whiteSpace=wrap;html=1;fontSize=12;glass=0;strokeWidth=1;shadow=0;" vertex="1" parent="WIyWlLk6GJQsqaUBKTNV-1">
          <mxGeometry y="110" width="120" height="40" as="geometry" />
        </mxCell>
        <mxCell id="j_ZyQGbrb5WWIaR_qc2B-3" value="Просмотреть информацию о фонде" style="rounded=1;whiteSpace=wrap;html=1;fontSize=12;glass=0;strokeWidth=1;shadow=0;" vertex="1" parent="WIyWlLk6GJQsqaUBKTNV-1">
          <mxGeometry x="660" y="30" width="140" height="60" as="geometry" />
        </mxCell>
        <mxCell id="j_ZyQGbrb5WWIaR_qc2B-4" value="СТРАНИЦЫ" style="text;html=1;strokeColor=none;fillColor=none;align=center;verticalAlign=middle;whiteSpace=wrap;rounded=0;" vertex="1" parent="WIyWlLk6GJQsqaUBKTNV-1">
          <mxGeometry x="25" y="10" width="70" height="20" as="geometry" />
        </mxCell>
        <mxCell id="j_ZyQGbrb5WWIaR_qc2B-5" value="ФУНКЦИИ" style="text;html=1;strokeColor=none;fillColor=none;align=center;verticalAlign=middle;whiteSpace=wrap;rounded=0;" vertex="1" parent="WIyWlLk6GJQsqaUBKTNV-1">
          <mxGeometry x="680" y="10" width="80" height="20" as="geometry" />
        </mxCell>
        <mxCell id="j_ZyQGbrb5WWIaR_qc2B-6" value="БЛОКИ" style="text;html=1;strokeColor=none;fillColor=none;align=center;verticalAlign=middle;whiteSpace=wrap;rounded=0;" vertex="1" parent="WIyWlLk6GJQsqaUBKTNV-1">
          <mxGeometry x="190" y="10" width="70" height="20" as="geometry" />
        </mxCell>
        <mxCell id="j_ZyQGbrb5WWIaR_qc2B-7" value="ДЕЙСТВИЯ" style="text;html=1;strokeColor=none;fillColor=none;align=center;verticalAlign=middle;whiteSpace=wrap;rounded=0;" vertex="1" parent="WIyWlLk6GJQsqaUBKTNV-1">
          <mxGeometry x="345" y="10" width="70" height="20" as="geometry" />
        </mxCell>
        <mxCell id="j_ZyQGbrb5WWIaR_qc2B-8" value="Учавствовать" style="rhombus;whiteSpace=wrap;html=1;" vertex="1" parent="WIyWlLk6GJQsqaUBKTNV-1">
          <mxGeometry x="330" y="50" width="100" height="90" as="geometry" />
        </mxCell>
        <mxCell id="j_ZyQGbrb5WWIaR_qc2B-9" value="Смотреть" style="rhombus;whiteSpace=wrap;html=1;" vertex="1" parent="WIyWlLk6GJQsqaUBKTNV-1">
          <mxGeometry x="330" y="140" width="100" height="90" as="geometry" />
        </mxCell>
        <mxCell id="j_ZyQGbrb5WWIaR_qc2B-10" value="Перейти&amp;nbsp;" style="rhombus;whiteSpace=wrap;html=1;" vertex="1" parent="WIyWlLk6GJQsqaUBKTNV-1">
          <mxGeometry x="330" y="230" width="100" height="90" as="geometry" />
        </mxCell>
        <mxCell id="j_ZyQGbrb5WWIaR_qc2B-11" value="Пожертвовать" style="rhombus;whiteSpace=wrap;html=1;" vertex="1" parent="WIyWlLk6GJQsqaUBKTNV-1">
          <mxGeometry x="330" y="320" width="100" height="90" as="geometry" />
        </mxCell>
        <mxCell id="j_ZyQGbrb5WWIaR_qc2B-12" value="Посмотреть и скачать сертификаты отчеты и документы" style="rounded=1;whiteSpace=wrap;html=1;fontSize=12;glass=0;strokeWidth=1;shadow=0;" vertex="1" parent="WIyWlLk6GJQsqaUBKTNV-1">
          <mxGeometry x="660" y="90" width="140" height="65" as="geometry" />
        </mxCell>
        <mxCell id="j_ZyQGbrb5WWIaR_qc2B-13" value="Скачать" style="rhombus;whiteSpace=wrap;html=1;" vertex="1" parent="WIyWlLk6GJQsqaUBKTNV-1">
          <mxGeometry x="330" y="410" width="100" height="90" as="geometry" />
        </mxCell>
        <mxCell id="j_ZyQGbrb5WWIaR_qc2B-14" value="Печать" style="rhombus;whiteSpace=wrap;html=1;" vertex="1" parent="WIyWlLk6GJQsqaUBKTNV-1">
          <mxGeometry x="330" y="500" width="100" height="90" as="geometry" />
        </mxCell>
        <mxCell id="j_ZyQGbrb5WWIaR_qc2B-15" value="Выбрать сироту, которому хочешь помочь" style="rounded=1;whiteSpace=wrap;html=1;fontSize=12;glass=0;strokeWidth=1;shadow=0;" vertex="1" parent="WIyWlLk6GJQsqaUBKTNV-1">
          <mxGeometry x="660" y="155" width="140" height="65" as="geometry" />
        </mxCell>
        <mxCell id="j_ZyQGbrb5WWIaR_qc2B-16" value="Выбрать проект, которым хочешь заниматься" style="rounded=1;whiteSpace=wrap;html=1;fontSize=12;glass=0;strokeWidth=1;shadow=0;" vertex="1" parent="WIyWlLk6GJQsqaUBKTNV-1">
          <mxGeometry x="660" y="255" width="140" height="65" as="geometry" />
        </mxCell>
        <mxCell id="j_ZyQGbrb5WWIaR_qc2B-17" value="Пройти тест профориентации" style="rounded=1;whiteSpace=wrap;html=1;fontSize=12;glass=0;strokeWidth=1;shadow=0;" vertex="1" parent="WIyWlLk6GJQsqaUBKTNV-1">
          <mxGeometry x="660" y="360" width="140" height="65" as="geometry" />
        </mxCell>
        <mxCell id="j_ZyQGbrb5WWIaR_qc2B-19" value="Заниматься предметом ради знаний - не интересно и полученный результат не очевиден. Можно предложить изучить предмет в рамках пет-проекта, который можно будет потом улучшить при желании и поместить в портфолио или использовать инвесторами" style="text;html=1;strokeColor=none;fillColor=none;align=center;verticalAlign=middle;whiteSpace=wrap;rounded=0;" vertex="1" parent="WIyWlLk6GJQsqaUBKTNV-1">
          <mxGeometry x="470" y="226.25" width="190" height="122.5" as="geometry" />
        </mxCell>
      </root>
    </mxGraphModel>
  </diagram>
</mxfile>
